<svg width="427" height="97" viewBox="0 0 427 97" fill="none" xmlns="http://www.w3.org/2000/svg">
<g id="Logo_JohnnyBros_light bg" clip-path="url(#clip0_0_1158)">
<rect width="427" height="97" fill="white"/>
<g id="Group 4 Copy 8">
<path id="Combined Shape" fill-rule="evenodd" clip-rule="evenodd" d="M53.0249 0H28.4376C28.0918 0 27.8071 0.28407 27.8071 0.632458V3.21857C27.8071 3.56963 28.0918 3.85102 28.4376 3.85102H53.0249C53.3734 3.85102 53.6527 3.56963 53.6527 3.21857V0.632458C53.6527 0.28407 53.3734 0 53.0249 0ZM26.6304 6.96668H1.91282C0.856643 6.96668 0 7.83229 0 8.89353V87.932C0 88.9906 0.856643 89.8535 1.91282 89.8535H26.6304C26.9736 89.8535 27.2556 89.5694 27.2556 89.221V86.6322C27.2556 86.2865 26.9736 86.0025 26.6304 86.0025H3.82297V10.8204H26.6304C26.9736 10.8204 27.2556 10.539 27.2556 10.1906V7.59914C27.2556 7.25075 26.9736 6.96668 26.6304 6.96668ZM51.0115 43.4464C51.9879 41.7151 52.5013 39.7588 52.5013 37.7274C52.5013 31.9201 48.1303 27.0025 42.5302 26.2226V26.2119H28.5393V36.902H33.9345V31.5449H40.9659C44.3499 31.5449 47.1007 34.3159 47.1007 37.7274C47.1007 39.4238 46.425 41.0023 45.2039 42.1841L42.4504 44.8721L45.8823 46.5819C49.253 48.2595 51.3467 51.6469 51.3467 55.4121C51.3467 60.8523 46.9491 65.2822 41.5539 65.2822H33.9345V64.0843V56.6556H36.954C36.9769 56.6567 36.9998 56.6585 37.0228 56.6604L37.023 56.6604L37.0231 56.6604L37.0233 56.6605C37.0591 56.6634 37.0952 56.6663 37.1323 56.6663C38.6221 56.6663 39.8246 55.4497 39.8246 53.9516C39.8246 53.8578 39.8193 53.764 39.8113 53.6675V51.2234L31.6865 51.2342V51.2395C29.9493 51.2395 28.5393 52.6599 28.5393 54.4099V70.5214H43.7753C51.1552 69.4361 56.742 63.074 56.742 55.4121C56.742 50.7143 54.619 46.3273 51.0115 43.4464ZM55.3924 6.96668H80.368C81.4216 6.96668 82.2809 7.83229 82.2809 8.89353V87.932C82.2809 88.9906 81.4216 89.8535 80.368 89.8535H55.3924C55.0465 89.8535 54.7592 89.5694 54.7592 89.221V86.6322C54.7592 86.2865 55.0465 86.0025 55.3924 86.0025H78.4552V10.8204H55.3924C55.0465 10.8204 54.7592 10.539 54.7592 10.1906V7.59914C54.7592 7.25075 55.0465 6.96668 55.3924 6.96668ZM28.4376 92.9303H53.0249C53.3734 92.9303 53.6527 93.2144 53.6527 93.5627V96.1515C53.6527 96.5026 53.3734 96.7867 53.0249 96.7867H28.4376C28.0918 96.7867 27.8071 96.5026 27.8071 96.1515V93.5627C27.8071 93.2144 28.0918 92.9303 28.4376 92.9303Z" fill="#3FAE49"/>
<path id="Combined Shape_2" fill-rule="evenodd" clip-rule="evenodd" d="M313.22 56.4697C313.84 57.6583 314.676 58.5804 315.726 59.2413C316.822 59.897 318.163 60.2262 319.738 60.2262C321.066 60.2262 322.165 59.9649 323.033 59.4346C323.952 58.8861 324.689 58.1416 325.266 57.1959C325.538 56.7152 325.772 56.2032 325.968 55.6625C326.161 55.1244 326.341 54.5497 326.501 53.9332C326.615 53.2958 326.7 52.6427 326.762 51.9739C326.817 51.3052 326.844 50.6051 326.844 49.8815V49.1579C326.844 48.4317 326.817 47.7211 326.762 47.0315C326.7 46.3392 326.602 45.6757 326.466 45.0383C326.191 43.7635 325.777 42.6428 325.231 41.6737C324.613 40.7097 323.868 39.9757 322.997 39.4663C322.129 38.9177 321.022 38.646 319.673 38.646C318.141 38.646 316.822 38.9752 315.726 39.6361C314.676 40.2944 313.84 41.2139 313.22 42.4025V56.4697ZM303.171 16.6688H304.95C306.096 16.6688 307.17 16.8778 308.179 17.2932C309.183 17.7111 310.056 18.2806 310.799 19.0094C311.545 19.733 312.135 20.5768 312.567 21.5434C313.005 22.5099 313.22 23.5418 313.22 24.6389V34.7903C314.341 33.5808 315.641 32.6273 317.124 31.922C317.858 31.5955 318.645 31.3421 319.493 31.167C320.334 30.992 321.237 30.9032 322.197 30.9032C324.483 30.9032 326.536 31.3421 328.365 32.2198C330.144 33.0975 331.67 34.3436 332.921 35.9449C333.56 36.7573 334.115 37.6403 334.583 38.5964C335.049 39.5499 335.446 40.587 335.764 41.7129C336.43 44.0143 336.76 46.4986 336.76 49.1579V49.8815C336.76 52.4311 336.43 54.8239 335.764 57.0627C335.125 59.3014 334.175 61.2162 332.921 62.7967C331.711 64.398 330.206 65.6623 328.394 66.5845C326.662 67.4857 324.613 67.935 322.265 67.935C320.138 67.935 318.326 67.5536 316.819 66.783C315.285 66.0359 313.933 64.9387 312.741 63.4889L312.567 63.327C312.524 63.2799 312.472 63.2381 312.415 63.1937C312.358 63.1493 312.314 63.1154 312.295 63.0918C311.632 64.3457 310.669 65.3593 309.395 66.143C308.128 66.9241 306.713 67.3107 305.16 67.3107H303.236L303.171 16.6688ZM195.955 67.411H193.52C192.511 67.3666 191.575 67.1367 190.705 66.7188C189.834 66.3008 189.081 65.7627 188.441 65.1017C187.802 64.4461 187.293 63.678 186.931 62.7951C186.567 61.92 186.382 60.9952 186.382 60.0287V45.5305C186.382 44.4124 186.243 43.4903 185.968 42.764C185.764 42.0587 185.394 41.4553 184.872 40.9537C184.366 40.4914 183.762 40.1726 183.052 39.995C182.323 39.7991 181.507 39.6998 180.615 39.6998C179.129 39.6998 177.873 39.9741 176.842 40.5227C175.835 41.1157 175.046 41.8863 174.475 42.832V60.0287C174.475 60.9952 174.287 61.92 173.925 62.7951C173.558 63.678 173.058 64.4461 172.416 65.1017C171.776 65.7627 171.02 66.3008 170.152 66.7188C169.282 67.1367 168.343 67.3666 167.337 67.411H164.866V16.9651H167.337C168.343 17.0095 169.282 17.2367 170.152 17.6573C171.02 18.0753 171.776 18.6186 172.416 19.29C173.058 19.9561 173.558 20.7268 173.925 21.5966C174.287 22.4639 174.475 23.3782 174.475 24.3448V36.6016C175.071 35.8989 175.723 35.2772 176.431 34.7417C177.135 34.2036 177.897 33.7334 178.694 33.3415C180.343 32.5735 182.149 32.1869 184.116 32.1869C185.879 32.1869 187.503 32.4168 188.988 32.8765C190.454 33.3859 191.703 34.1644 192.731 35.2197C193.256 35.7683 193.713 36.3927 194.102 37.098C194.491 37.7981 194.845 38.5661 195.163 39.402C195.715 41.1157 195.99 43.1794 195.99 45.5984L195.955 67.411ZM113.055 24.7068C113.33 25.2998 113.697 25.8145 114.151 26.2559C114.407 26.4989 114.679 26.7 114.981 26.862C115.275 27.0318 115.596 27.1781 115.938 27.3087C116.627 27.5516 117.38 27.6718 118.202 27.6718C119.048 27.6718 119.826 27.5516 120.539 27.3087C121.221 27.0684 121.817 26.7157 122.318 26.2559C122.571 26.0391 122.78 25.8014 122.954 25.548C123.128 25.2946 123.294 25.0151 123.452 24.7068C123.705 24.093 123.828 23.4111 123.828 22.664C123.828 21.2377 123.327 20.0726 122.318 19.1714C121.333 18.2284 119.962 17.7555 118.202 17.7555C116.488 17.7555 115.133 18.2284 114.151 19.1714C113.15 20.0935 112.641 21.2586 112.641 22.664C112.641 23.4347 112.783 24.1139 113.055 24.7068ZM118.754 32.5333C117.813 32.1493 116.82 31.9559 115.767 31.9559H113.433V69.5181C113.433 70.0223 113.351 70.4925 113.191 70.9339C112.984 71.5687 112.704 72.0912 112.334 72.5013C111.969 72.9088 111.591 73.2275 111.205 73.4522C110.811 73.6899 110.443 73.8571 110.09 73.9642C109.731 74.0765 109.442 74.1418 109.211 74.1627C108.825 74.2098 108.43 74.2333 108.03 74.2463C107.63 74.2568 107.269 74.2751 106.95 74.2986C106.559 74.3142 106.18 74.3273 105.819 74.3273H102.179V75.9104C102.179 76.5922 102.288 77.2505 102.505 77.8879C102.72 78.5226 103.022 79.1156 103.414 79.6668C103.871 80.2833 104.445 80.7875 105.13 81.182C105.819 81.579 106.537 81.8507 107.29 82.0074C107.475 82.0283 107.647 82.044 107.805 82.0571C107.968 82.0649 108.126 82.0806 108.289 82.1015C108.7 82.1485 109.097 82.1877 109.486 82.219C109.875 82.253 110.277 82.2687 110.691 82.2687C111.716 82.2687 112.679 82.1981 113.572 82.0571C114.464 81.9134 115.307 81.7096 116.107 81.4458C117.734 80.8737 119.061 80.0613 120.092 79.0085C121.143 77.9715 121.975 76.6784 122.592 75.1188C122.87 74.3273 123.079 73.4888 123.226 72.598C123.381 71.7098 123.452 70.7563 123.452 69.7454V39.3043C123.452 38.2934 123.251 37.3425 122.851 36.4543C122.451 35.5635 121.904 34.7851 121.205 34.1137C120.506 33.445 119.69 32.9173 118.754 32.5333ZM136.9 54.0207C136.625 52.7459 136.489 51.3823 136.489 49.9324V49.2349C136.489 47.8321 136.625 46.492 136.9 45.2303C137.172 43.9607 137.618 42.8531 138.222 41.897C138.829 40.9409 139.615 40.1807 140.589 39.6191C141.56 39.0575 142.738 38.7753 144.112 38.7753C145.499 38.7753 146.693 39.0575 147.675 39.6191C148.663 40.1807 149.46 40.9409 150.077 41.897C150.695 42.8531 151.144 43.9607 151.413 45.2303C151.691 46.492 151.827 47.8321 151.827 49.2349V49.9324C151.827 51.3823 151.691 52.7459 151.413 54.0207C151.144 55.2981 150.695 56.4057 150.077 57.3383C149.46 58.2735 148.666 59.018 147.692 59.5666C146.721 60.1151 145.545 60.392 144.177 60.392C142.754 60.392 141.56 60.1151 140.589 59.5666C139.615 59.018 138.829 58.2735 138.222 57.3383C137.618 56.4057 137.172 55.2981 136.9 54.0207ZM127.743 42.0381C126.962 44.2585 126.573 46.6645 126.573 49.2532V49.9481C126.573 52.563 126.962 54.9742 127.743 57.1789C128.516 59.3863 129.656 61.2959 131.152 62.9103C132.651 64.5299 134.49 65.7917 136.68 66.7007C138.859 67.6124 141.364 68.067 144.177 68.067C146.987 68.067 149.482 67.6124 151.655 66.7007C153.829 65.7917 155.662 64.5299 157.164 62.9103C158.66 61.2959 159.8 59.3863 160.575 57.1789C161.353 54.9742 161.745 52.563 161.745 49.9481V49.2532C161.745 46.6645 161.353 44.2585 160.575 42.0381C159.8 39.8203 158.66 37.9054 157.164 36.2884C155.662 34.674 153.818 33.4071 151.62 32.4849C149.425 31.5628 146.919 31.1004 144.112 31.1004C141.315 31.1004 138.829 31.5628 136.642 32.4849C134.46 33.4071 132.626 34.674 131.136 36.2884C129.647 37.9054 128.516 39.8203 127.743 42.0381ZM199.112 31.7924V67.411H201.615C202.597 67.411 203.533 67.2308 204.411 66.865C205.293 66.5045 206.065 66.0082 206.729 65.3839C207.396 64.7569 207.913 64.0307 208.291 63.1922C208.666 62.3588 208.857 61.468 208.857 60.5224C208.832 57.3354 208.821 54.4932 208.821 51.988V43.357C209.349 42.1266 210.105 41.1496 211.087 40.4234C212.116 39.6998 213.372 39.3367 214.86 39.3367C215.755 39.3367 216.52 39.4125 217.162 39.5666C217.845 39.7442 218.429 40.0394 218.908 40.4548C219.39 40.9198 219.743 41.5101 219.972 42.2337C220.111 42.6073 220.209 43.0331 220.266 43.5059C220.323 43.9788 220.353 44.5117 220.353 45.1047L220.385 59.8641C220.385 60.896 220.592 61.873 221.003 62.7951C221.414 63.7198 221.977 64.5218 222.687 65.201C223.391 65.8854 224.221 66.4209 225.173 66.8128C226.123 67.2125 227.143 67.411 228.242 67.411H230.13V45.1047C230.13 43.8508 230.065 42.7144 229.942 41.693C229.814 40.6716 229.616 39.7312 229.341 38.877C228.791 37.1842 227.989 35.7997 226.939 34.7234C225.954 33.6707 224.73 32.9105 223.266 32.4507C222.535 32.2078 221.762 32.0275 220.951 31.91C220.138 31.7872 219.297 31.7245 218.429 31.7245C215.959 31.7245 213.799 32.1999 211.944 33.143C210.135 34.1095 208.65 35.4157 207.483 37.064C206.498 35.1962 205.195 33.8326 203.574 32.9784C202.268 32.3201 200.782 31.923 199.112 31.7924ZM233.254 67.411V31.7924C234.924 31.923 236.409 32.3201 237.715 32.9784C239.339 33.8326 240.642 35.1962 241.627 37.064C242.794 35.4157 244.282 34.1095 246.088 33.143C247.938 32.1999 250.104 31.7245 252.568 31.7245C253.441 31.7245 254.279 31.7872 255.093 31.91C255.906 32.0275 256.679 32.2078 257.408 32.4507C258.874 32.9105 260.098 33.6707 261.08 34.7234C262.133 35.7997 262.936 37.1842 263.482 38.877C263.757 39.7312 263.961 40.6716 264.084 41.693C264.209 42.7144 264.271 43.8508 264.271 45.1047V67.411H262.383C261.287 67.411 260.264 67.2125 259.315 66.8128C258.365 66.4209 257.536 65.8854 256.826 65.201C256.118 64.5218 255.555 63.7198 255.144 62.7951C254.734 61.873 254.53 60.896 254.53 59.8641L254.492 45.1047C254.492 44.5117 254.464 43.9788 254.41 43.5059C254.35 43.0331 254.255 42.6073 254.113 42.2337C253.885 41.5101 253.531 40.9198 253.052 40.4548C252.568 40.0394 251.986 39.7442 251.301 39.5666C250.661 39.4125 249.894 39.3367 249.002 39.3367C247.516 39.3367 246.26 39.6998 245.231 40.4234C244.247 41.1496 243.488 42.1266 242.96 43.357V51.988C242.96 54.4932 242.973 57.3354 242.998 60.5224C242.998 61.468 242.81 62.3588 242.432 63.1922C242.054 64.0307 241.534 64.7569 240.871 65.3839C240.21 66.0082 239.437 66.5045 238.553 66.865C237.674 67.2308 236.741 67.411 235.759 67.411H233.254ZM284.036 73.2236L298.484 33.3862L296.147 32.6312C295.209 32.2995 294.26 32.1662 293.299 32.2159C292.339 32.276 291.441 32.4849 290.606 32.8585C289.768 33.2347 289.034 33.7493 288.394 34.4102C287.75 35.0685 287.26 35.8365 286.917 36.7169H286.887L281.395 54.3786L275.905 36.7169C275.56 35.8365 275.059 35.0737 274.395 34.4233C273.732 33.7754 272.986 33.2686 272.165 32.8925C271.34 32.5189 270.454 32.2995 269.507 32.2342C268.555 32.1689 267.611 32.2995 266.672 32.6312L264.273 33.4201L276.797 67.9494L275.769 70.6531C275.63 70.9849 275.494 71.2879 275.358 71.5753C275.217 71.8626 275.059 72.1343 274.874 72.3981C274.692 72.6176 274.499 72.8265 274.289 73.0251C274.083 73.2236 273.857 73.396 273.606 73.5502C273.171 73.861 272.575 74.0804 271.822 74.2111C271.708 74.2294 271.517 74.2502 271.253 74.2581C271.023 74.2673 270.771 74.2847 270.505 74.303L270.505 74.303L270.505 74.303L270.399 74.3103C270.089 74.3312 269.776 74.3469 269.45 74.36C269.131 74.3678 268.846 74.3861 268.596 74.4096H268.525H264.719H264.684L264.719 75.9926C264.719 76.7607 264.822 77.4973 265.026 78.1974C265.23 78.9027 265.554 79.5245 265.992 80.073L266.019 80.107C266.55 80.747 267.2 81.2355 267.975 81.5751C268.753 81.9147 269.567 82.0636 270.413 82.0192C270.984 81.9983 271.621 81.9643 272.32 81.9225C273.016 81.8755 273.691 81.8285 274.344 81.7736C274.994 81.7162 275.579 81.6587 276.096 81.5908C276.61 81.5255 276.966 81.4602 277.173 81.3923C277.837 81.0657 278.454 80.7104 279.025 80.3421C279.599 79.9686 280.1 79.548 280.535 79.0882C280.995 78.6493 281.406 78.1817 281.77 77.6854C282.135 77.1917 282.445 76.6588 282.695 76.0893C282.951 75.5851 283.19 75.0888 283.416 74.6081C283.645 74.1222 283.854 73.6599 284.036 73.2236ZM358.652 41.1828L358.824 41.2142V31.7577H356.8C355.151 31.7812 353.669 32.1913 352.355 32.9959C351.043 33.7979 350.042 34.8532 349.351 36.1724C348.666 34.8532 347.667 33.7979 346.356 32.9959C345.037 32.1913 343.554 31.7812 341.908 31.7577H339.884V31.7916V62.9589C339.884 63.6224 340.007 64.2363 340.263 64.8058C340.513 65.3779 340.858 65.8768 341.31 66.3052C341.751 66.7363 342.27 67.0706 342.869 67.311C343.464 67.5539 344.104 67.6741 344.792 67.6741C345.429 67.6741 346.043 67.5539 346.626 67.311C347.208 67.0706 347.725 66.7363 348.171 66.3052C348.617 65.8768 348.965 65.3779 349.215 64.8058C349.466 64.2363 349.593 63.6224 349.593 62.9589V44.7068C349.89 44.1373 350.263 43.6384 350.709 43.21C351.158 42.7815 351.664 42.4106 352.235 42.105C352.831 41.7549 353.511 41.4989 354.281 41.3474C355.045 41.1959 355.91 41.1149 356.865 41.1149C357.167 41.1149 357.455 41.1227 357.744 41.1332C358.027 41.1462 358.331 41.1619 358.652 41.1828ZM369.421 49.9324C369.421 51.3823 369.56 52.7459 369.829 54.0207C370.106 55.2981 370.547 56.4057 371.151 57.3383C371.755 58.2735 372.547 59.018 373.521 59.5666C374.492 60.1151 375.689 60.392 377.106 60.392C378.477 60.392 379.65 60.1151 380.621 59.5666C381.595 59.018 382.392 58.2735 383.009 57.3383C383.627 56.4057 384.07 55.2981 384.348 54.0207C384.62 52.7459 384.756 51.3823 384.756 49.9324V49.2349C384.756 47.8321 384.62 46.492 384.348 45.2303C384.07 43.9607 383.627 42.8531 383.009 41.897C382.392 40.9409 381.589 40.1807 380.607 39.6191C379.622 39.0575 378.434 38.7753 377.033 38.7753C375.661 38.7753 374.492 39.0575 373.521 39.6191C372.547 40.1807 371.755 40.9409 371.151 41.897C370.547 42.8531 370.106 43.9607 369.829 45.2303C369.56 46.492 369.421 47.8321 369.421 49.2349V49.9324ZM359.502 49.2532C359.502 46.6645 359.894 44.2585 360.672 42.0381C361.448 39.8203 362.576 37.9054 364.065 36.2884C365.555 34.674 367.392 33.4071 369.576 32.4849C371.755 31.5628 374.244 31.1004 377.033 31.1004C379.851 31.1004 382.356 31.5628 384.554 32.4849C386.744 33.4071 388.597 34.674 390.09 36.2884C391.592 37.9054 392.729 39.8203 393.507 42.0381C394.288 44.2585 394.671 46.6645 394.671 49.2532V49.9481C394.671 52.563 394.288 54.9742 393.507 57.1789C392.729 59.3863 391.592 61.2959 390.09 62.9103C388.597 64.5299 386.758 65.7917 384.584 66.7007C382.411 67.6124 379.919 68.067 377.106 68.067C374.29 68.067 371.796 67.6124 369.606 66.7007C367.421 65.7917 365.58 64.5299 364.086 62.9103C362.585 61.2959 361.448 59.3863 360.672 57.1789C359.894 54.9742 359.502 52.563 359.502 49.9481V49.2532ZM427 57.361C427 55.6238 426.644 54.1453 425.936 52.9097C425.596 52.3193 425.188 51.7655 424.72 51.2482C424.247 50.731 423.708 50.2634 423.091 49.8481C422.473 49.4275 421.807 49.0461 421.102 48.6934C420.389 48.3434 419.611 48.0377 418.763 47.7739C417.024 47.2227 415.196 46.7708 413.276 46.4233C412.658 46.311 412.087 46.1908 411.562 46.0576C411.034 45.927 410.553 45.7964 410.115 45.6632C409.66 45.5117 409.26 45.3549 408.918 45.2008C408.575 45.0519 408.276 44.8847 408.023 44.7071C407.481 44.3779 407.1 44.0148 406.891 43.6204C406.641 43.2468 406.516 42.7975 406.516 42.2698C406.516 41.1491 406.973 40.2479 407.889 39.5687C408.782 38.8425 410.041 38.482 411.663 38.482C412.62 38.482 413.423 38.5368 414.067 38.6465C414.704 38.7563 415.286 38.9992 415.817 39.3702C416.274 39.6784 416.635 40.0337 416.894 40.4412C417.158 40.8461 417.348 41.2719 417.462 41.7108C417.528 41.972 417.62 42.2489 417.718 42.5336C417.821 42.8184 417.93 43.1005 418.045 43.3722C418.159 43.6491 418.279 43.8973 418.406 44.1141C418.526 44.3335 418.651 44.4955 418.763 44.6104C419.475 45.4437 420.351 46.1046 421.391 46.5853C422.43 47.0712 423.578 47.3115 424.837 47.3115H426.899V42.8314C426.853 41.2928 426.497 39.8743 425.836 38.5786C425.123 37.1941 424.119 36.0212 422.816 35.0546C422.15 34.5479 421.423 34.1038 420.637 33.7172C419.845 33.3358 418.98 32.9883 418.045 32.6801C416.236 32.1315 414.122 31.8598 411.698 31.8598C409.478 31.8598 407.451 32.1446 405.623 32.7166C403.817 33.307 402.283 34.109 401.026 35.1173C399.837 36.063 398.888 37.2072 398.178 38.5473C397.538 39.9083 397.215 41.2928 397.215 42.6982C397.215 44.2369 397.538 45.5534 398.178 46.6506C398.499 47.2227 398.888 47.7608 399.345 48.2676C399.802 48.7718 400.308 49.2446 400.849 49.6835C401.448 50.1014 402.09 50.4907 402.775 50.8538C403.461 51.2169 404.192 51.5408 404.973 51.8229C405.773 52.1129 406.595 52.3741 407.441 52.6171C408.287 52.8548 409.192 53.0768 410.155 53.2754C410.885 53.4504 411.567 53.6124 412.193 53.7534C412.821 53.8945 413.379 54.0434 413.861 54.1975C414.339 54.3725 414.769 54.545 415.147 54.7043C415.523 54.8741 415.86 55.0543 416.157 55.2503C416.709 55.582 417.073 55.9556 417.256 56.3709C417.462 56.768 417.566 57.2173 417.566 57.7215C417.566 58.8213 417.098 59.7016 416.157 60.3599C415.215 61.06 413.812 61.4127 411.94 61.4127C411.048 61.4127 410.213 61.3134 409.432 61.1149C408.629 60.8745 407.933 60.5715 407.34 60.1927C406.722 59.8009 406.241 59.2732 405.898 58.6123C405.806 58.4608 405.727 58.2701 405.659 58.0533C405.591 57.8338 405.534 57.6118 405.487 57.395C405.166 56.1829 404.609 55.1641 403.806 54.3281C403.053 53.6254 402.182 53.0716 401.195 52.6641C400.21 52.2592 399.162 52.0554 398.042 52.0554H396.083L396.053 56.2743C396.053 56.6687 396.107 57.1625 396.224 57.7555C396.339 58.3458 396.543 59.0041 396.839 59.7173C397.136 60.4304 397.547 61.1776 398.074 61.9586C398.599 62.7371 399.266 63.4973 400.068 64.247C400.724 64.8635 401.472 65.3833 402.294 65.8118C403.118 66.2402 404.01 66.6163 404.973 66.9481C406.869 67.6508 409.135 68.0009 411.769 68.0009C414.097 68.0009 416.189 67.737 418.045 67.2146C418.98 66.9272 419.854 66.6007 420.656 66.2402C421.45 65.8771 422.188 65.4565 422.849 64.9732C424.195 64.0067 425.213 62.886 425.904 61.6112C426.635 60.339 427 58.9205 427 57.361Z" fill="#182752"/>
</g>
</g>
<defs>
<clipPath id="clip0_0_1158">
<rect width="427" height="97" fill="white"/>
</clipPath>
</defs>
</svg>
